<svg xmlns="http://www.w3.org/2000/svg" width="1600" height="980" viewBox="0 0 1600 980" role="img" aria-labelledby="title desc">
  <title id="title">Parametric Edge Query Flow</title>
  <desc id="desc">Flow diagram showing how main queries and denoising queries are built, concatenated, refined through the decoder, and split into outputs.</desc>
  <defs>
    <linearGradient id="bg" x1="0" y1="0" x2="1" y2="1">
      <stop offset="0%" stop-color="#0f172a"/>
      <stop offset="100%" stop-color="#111827"/>
    </linearGradient>
    <marker id="arrow" markerWidth="12" markerHeight="12" refX="10" refY="6" orient="auto">
      <path d="M0,0 L12,6 L0,12 z" fill="#9fb3c8"/>
    </marker>
    <style>
      .title { font: 700 34px 'DejaVu Sans', sans-serif; fill: #f8fafc; }
      .subtitle { font: 400 18px 'DejaVu Sans', sans-serif; fill: #cbd5e1; }
      .group { font: 700 20px 'DejaVu Sans', sans-serif; fill: #e5eef9; }
      .box-title { font: 700 18px 'DejaVu Sans', sans-serif; fill: #f8fafc; }
      .box-text { font: 400 15px 'DejaVu Sans', sans-serif; fill: #e2e8f0; }
      .small { font: 400 14px 'DejaVu Sans', sans-serif; fill: #cbd5e1; }
      .arrow { stroke: #9fb3c8; stroke-width: 3.2; fill: none; marker-end: url(#arrow); }
      .connector { stroke: #6b7280; stroke-width: 2.4; fill: none; marker-end: url(#arrow); stroke-dasharray: 8 6; }
      .panel { fill: rgba(255,255,255,0.03); stroke: rgba(148,163,184,0.20); stroke-width: 2; }
      .main { fill: #2563eb; stroke: #bfdbfe; stroke-width: 2; }
      .dn { fill: #7c3aed; stroke: #ddd6fe; stroke-width: 2; }
      .decoder { fill: #059669; stroke: #bbf7d0; stroke-width: 2; }
      .output { fill: #ea580c; stroke: #fed7aa; stroke-width: 2; }
      .neutral { fill: #334155; stroke: #cbd5e1; stroke-width: 2; }
    </style>
  </defs>

  <rect width="1600" height="980" fill="url(#bg)"/>
  <text x="60" y="58" class="title">Query Flow in the Current Parametric Edge Model</text>
  <text x="60" y="90" class="subtitle">Main queries come from encoder proposals. DN queries come from noisy GT curves during training. Both are refined layer by layer inside the decoder.</text>

  <rect x="40" y="130" width="470" height="360" rx="24" class="panel"/>
  <text x="64" y="168" class="group">1. Main Query Path</text>

  <rect x="70" y="205" width="180" height="80" rx="16" class="neutral"/>
  <text x="92" y="238" class="box-title">Image</text>
  <text x="92" y="262" class="box-text">DINOv2 backbone +</text>
  <text x="92" y="282" class="box-text">multi-scale encoder memory</text>

  <rect x="320" y="205" width="150" height="80" rx="16" class="neutral"/>
  <text x="343" y="238" class="box-title">Proposal Heads</text>
  <text x="343" y="262" class="box-text">score head</text>
  <text x="343" y="282" class="box-text">reference head</text>

  <rect x="70" y="340" width="180" height="90" rx="16" class="main"/>
  <text x="92" y="374" class="box-title">Top-k Proposals</text>
  <text x="92" y="398" class="box-text">pick highest-scoring</text>
  <text x="92" y="418" class="box-text">memory locations</text>

  <rect x="320" y="325" width="150" height="120" rx="16" class="main"/>
  <text x="344" y="358" class="box-title">Main Queries</text>
  <text x="344" y="382" class="box-text">content = projected</text>
  <text x="344" y="402" class="box-text">proposal feature +</text>
  <text x="344" y="422" class="box-text">learned query embedding</text>

  <rect x="70" y="545" width="180" height="110" rx="16" class="main"/>
  <text x="92" y="579" class="box-title">Main Ref Points</text>
  <text x="92" y="603" class="box-text">2D references come</text>
  <text x="92" y="623" class="box-text">from proposal ref head</text>

  <rect x="320" y="545" width="150" height="110" rx="16" class="main"/>
  <text x="343" y="579" class="box-title">Fallback Slots</text>
  <text x="343" y="603" class="box-text">if top-k is short,</text>
  <text x="343" y="623" class="box-text">use learned query refs</text>

  <rect x="560" y="130" width="430" height="360" rx="24" class="panel"/>
  <text x="584" y="168" class="group">2. Denoising Query Path (training only)</text>

  <rect x="590" y="205" width="170" height="90" rx="16" class="dn"/>
  <text x="615" y="239" class="box-title">GT Curves</text>
  <text x="615" y="263" class="box-text">duplicate by DN groups</text>
  <text x="615" y="283" class="box-text">and add point noise</text>

  <rect x="810" y="205" width="150" height="90" rx="16" class="dn"/>
  <text x="834" y="239" class="box-title">DN Encoder</text>
  <text x="834" y="263" class="box-text">MLP over flattened</text>
  <text x="834" y="283" class="box-text">noisy control points</text>

  <rect x="590" y="350" width="170" height="100" rx="16" class="dn"/>
  <text x="613" y="384" class="box-title">DN Query Content</text>
  <text x="613" y="408" class="box-text">curve encoding +</text>
  <text x="613" y="428" class="box-text">label embedding</text>

  <rect x="810" y="350" width="150" height="100" rx="16" class="dn"/>
  <text x="835" y="384" class="box-title">DN Ref Points</text>
  <text x="835" y="408" class="box-text">mean of noisy</text>
  <text x="835" y="428" class="box-text">control points</text>

  <rect x="1040" y="130" width="500" height="360" rx="24" class="panel"/>
  <text x="1064" y="168" class="group">3. Merge and Decode</text>

  <rect x="1070" y="215" width="180" height="90" rx="16" class="neutral"/>
  <text x="1093" y="249" class="box-title">Merge Step</text>
  <text x="1093" y="273" class="box-text">train + DN on:</text>
  <text x="1093" y="293" class="box-text">[DN queries, main queries]</text>

  <rect x="1290" y="215" width="210" height="90" rx="16" class="neutral"/>
  <text x="1312" y="249" class="box-title">Initialize Decoder</text>
  <text x="1312" y="273" class="box-text">hidden = zeros_like(queries)</text>
  <text x="1312" y="293" class="box-text">current_ref = merged refs</text>

  <rect x="1070" y="360" width="180" height="100" rx="16" class="decoder"/>
  <text x="1102" y="394" class="box-title">Decoder Layer</text>
  <text x="1102" y="418" class="box-text">hidden + queries</text>
  <text x="1102" y="438" class="box-text">cross-attend around ref</text>

  <rect x="1290" y="360" width="210" height="100" rx="16" class="decoder"/>
  <text x="1314" y="394" class="box-title">Refinement</text>
  <text x="1314" y="418" class="box-text">predict ref delta</text>
  <text x="1314" y="438" class="box-text">update current reference</text>

  <rect x="40" y="725" width="1500" height="190" rx="24" class="panel"/>
  <text x="64" y="763" class="group">4. Output Heads</text>

  <rect x="90" y="800" width="220" height="80" rx="16" class="output"/>
  <text x="126" y="834" class="box-title">Final Hidden + Refs</text>
  <text x="126" y="858" class="box-text">use last decoder state</text>

  <rect x="390" y="800" width="210" height="80" rx="16" class="output"/>
  <text x="447" y="834" class="box-title">Class Head</text>
  <text x="447" y="858" class="box-text">object / non-object</text>

  <rect x="680" y="800" width="240" height="80" rx="16" class="output"/>
  <text x="734" y="834" class="box-title">Curve Head</text>
  <text x="734" y="858" class="box-text">predict control-point deltas</text>

  <rect x="1000" y="800" width="220" height="80" rx="16" class="output"/>
  <text x="1048" y="834" class="box-title">Extent Head</text>
  <text x="1048" y="858" class="box-text">predict curve scale</text>

  <rect x="1300" y="790" width="190" height="100" rx="16" class="output"/>
  <text x="1331" y="824" class="box-title">Split Outputs</text>
  <text x="1331" y="848" class="box-text">front chunk = DN</text>
  <text x="1331" y="868" class="box-text">remaining = normal queries</text>

  <path d="M250 245 L320 245" class="arrow"/>
  <path d="M395 285 L395 325" class="arrow"/>
  <path d="M160 285 L160 340" class="arrow"/>
  <path d="M160 430 L160 545" class="arrow"/>
  <path d="M250 595 L320 595" class="connector"/>

  <path d="M760 250 L810 250" class="arrow"/>
  <path d="M675 295 L675 350" class="arrow"/>
  <path d="M885 295 L885 350" class="arrow"/>

  <path d="M470 385 L1070 260" class="arrow"/>
  <path d="M250 600 L1070 282" class="arrow"/>
  <path d="M760 400 L1070 282" class="arrow"/>
  <path d="M960 400 L1070 282" class="arrow"/>

  <path d="M1250 260 L1290 260" class="arrow"/>
  <path d="M1160 305 L1160 360" class="arrow"/>
  <path d="M1250 410 L1290 410" class="arrow"/>
  <path d="M1395 460 C1395 520, 1160 520, 1160 460" class="arrow"/>
  <text x="1216" y="515" class="small">repeat for each decoder layer</text>

  <path d="M1395 460 L1395 800" class="arrow"/>
  <path d="M310 840 L390 840" class="arrow"/>
  <path d="M600 840 L680 840" class="arrow"/>
  <path d="M920 840 L1000 840" class="arrow"/>
  <path d="M1220 840 L1300 840" class="arrow"/>

  <text x="90" y="945" class="subtitle">Saved as SVG so it stays versionable, diffable, and easy to view directly on GitHub.</text>
</svg>